<svg width="120" height="120" viewBox="0 0 120 120" fill="none" xmlns="http://www.w3.org/2000/svg">
<rect x="2" y="2" width="116" height="116" rx="16" fill="white"/>
<rect x="2" y="2" width="116" height="116" rx="16" stroke="#425164" stroke-width="4"/>
<path d="M68.0303 82.3787C65.6061 82.3787 64.1212 80.8939 64.1212 78.3181V41.6818C64.1212 39.106 65.6061 37.6212 68.0303 37.6212C70.4849 37.6212 71.9394 39.106 71.9394 41.6818V56.3181H93.2121V41.6818C93.2121 39.106 94.6667 37.6212 97.0909 37.6212C99.5455 37.6212 101 39.106 101 41.6818V78.3181C101 80.8939 99.5455 82.3787 97.0909 82.3787C94.6667 82.3787 93.2121 80.8939 93.2121 78.3181V62.8939H71.9394V78.3181C71.9394 80.8939 70.4849 82.3787 68.0303 82.3787Z" fill="#425164"/>
<path d="M39.4242 82.5909C26.7879 82.5909 19 74.0151 19 59.9848C19 46.0454 26.9091 37.4091 39.2727 37.4091C47.3636 37.4091 53.7576 41.1969 56.6364 47.5909C57.1212 48.5909 57.3636 49.6212 57.3636 50.5303C57.3636 52.6212 56 53.9545 53.9091 53.9545C52.1212 53.9545 50.9394 53.106 50.0909 51.1969C48.0606 46.5 44.0909 44.0454 39.3333 44.0454C31.8182 44.0454 27 50.2272 27 59.9848C27 69.803 31.7879 75.9545 39.3636 75.9545C44.3636 75.9545 48.2121 73.7727 50.2121 69.1666C51 67.3788 52 66.6515 53.697 66.6515C55.8485 66.6515 57.3333 68.0757 57.3333 70.1363C57.3333 71.1363 57.0909 72.0454 56.6061 73.0757C53.8182 79.0151 47.6061 82.5909 39.4242 82.5909Z" fill="#425164"/>
</svg>
